<?xml version="1.0" ?><!DOCTYPE svg  PUBLIC '-//W3C//DTD SVG 1.1//EN'  'http://www.w3.org/Graphics/SVG/1.1/DTD/svg11.dtd'><svg enable-background="new 0 0 128 128" height="128px" id="Layer_1" version="1.1" viewBox="0 0 128 128" width="128px" xml:space="preserve" xmlns="http://www.w3.org/2000/svg" xmlns:xlink="http://www.w3.org/1999/xlink"><g><path d="M39,60h50c11.58,0,21-9.42,21-21s-9.42-21-21-21H39c-11.58,0-21,9.42-21,21S27.42,60,39,60z M39,20h50   c10.477,0,19,8.523,19,19s-8.523,19-19,19H39c-10.477,0-19-8.523-19-19S28.523,20,39,20z" fill="#2BACE2"/><path d="M39.167,50.375c6.272,0,11.375-5.103,11.375-11.375s-5.103-11.375-11.375-11.375S27.792,32.728,27.792,39   S32.895,50.375,39.167,50.375z M39.167,29.625c5.169,0,9.375,4.206,9.375,9.375s-4.206,9.375-9.375,9.375S29.792,44.169,29.792,39   S33.997,29.625,39.167,29.625z" fill="#2BACE2"/><path d="M89,68H39c-11.58,0-21,9.42-21,21s9.42,21,21,21h50c11.58,0,21-9.42,21-21S100.58,68,89,68z M89,108H39   c-10.477,0-19-8.523-19-19s8.523-19,19-19h50c10.477,0,19,8.523,19,19S99.477,108,89,108z" fill="#2BACE2"/><path d="M88.834,77.625c-6.273,0-11.375,5.104-11.375,11.375s5.102,11.375,11.375,11.375   c6.271,0,11.375-5.104,11.375-11.375S95.105,77.625,88.834,77.625z M88.834,98.375c-5.17,0-9.375-4.205-9.375-9.375   s4.205-9.375,9.375-9.375c5.168,0,9.375,4.205,9.375,9.375S94.002,98.375,88.834,98.375z" fill="#2BACE2"/></g></svg>