<svg xmlns="http://www.w3.org/2000/svg" version="1.1" xmlns:xlink="http://www.w3.org/1999/xlink" xmlns:svgjs="http://svgjs.com/svgjs" width="1440" height="560" preserveAspectRatio="none" viewBox="0 0 1440 560"><g mask="url(&quot;#SvgjsMask1046&quot;)" fill="none"><rect width="1440" height="560" x="0" y="0" fill="rgba(75, 67, 159, 1)"></rect><path d="M0,377.18C67.831,360.387,127.621,327.729,184.823,287.591C239.901,248.943,283.101,200.857,325.611,148.702C382.22,79.248,472.159,21.284,474.877,-68.277C477.594,-157.802,402.246,-230.321,339.04,-293.78C278.975,-354.085,208.037,-410.208,123.603,-420.954C43.537,-431.144,-23.973,-367.479,-102.772,-350.01C-189.618,-330.756,-290.176,-366.327,-361.653,-313.374C-436.024,-258.277,-487.654,-161.63,-481.732,-69.263C-475.922,21.349,-371.624,69.928,-331.844,151.548C-293.578,230.061,-326.993,347.313,-254.765,396.423C-182.883,445.298,-84.377,398.07,0,377.18" fill="#393379"></path><path d="M1440 982.896C1544.585 999.2719999999999 1655.837 1091.578 1746.437 1036.825 1836.372 982.4739999999999 1819.578 845.375 1838.574 742.023 1853.353 661.614 1845.355 583.556 1844.776 501.802 1844.091 405.13800000000003 1881.743 302.387 1834.8609999999999 217.851 1785.554 128.942 1687.8600000000001 76.53500000000003 1591.295 44.736999999999966 1492.775 12.294999999999959 1383.997 1.8400000000000318 1286.517 37.28399999999999 1191.6109999999999 71.79199999999997 1128.03 156.226 1065.842 235.791 1006.408 311.83299999999997 944.4590000000001 391.332 934.744 487.355 925.195 581.729 967.53 671.787 1013.325 754.856 1056.475 833.127 1110.77 907.508 1189.595 949.637 1265.391 990.1469999999999 1355.093 969.601 1440 982.896" fill="#665dbb"></path></g><defs><mask id="SvgjsMask1046"><rect width="1440" height="560" fill="#ffffff"></rect></mask></defs></svg>