<svg xmlns="http://www.w3.org/2000/svg" version="1.1" xmlns:xlink="http://www.w3.org/1999/xlink" xmlns:svgjs="http://svgjs.com/svgjs" width="1440" height="560" preserveAspectRatio="none" viewBox="0 0 1440 560"><g mask="url(&quot;#SvgjsMask1233&quot;)" fill="none"><rect width="1440" height="560" x="0" y="0" fill="rgba(233, 232, 243, 1)"></rect><path d="M252.1 485.01L261.42 476.24 272.03 483.41 281.36 474.63 291.97 481.81 301.29 473.03 311.9 480.2M252.74 492.99L262.06 484.21 272.67 491.38 282 482.61 292.61 489.78 301.93 481 312.54 488.18M253.38 500.96L262.7 492.19 273.31 499.36 282.64 490.58 293.25 497.75 302.58 488.98 313.19 496.15" stroke="rgba(255, 145, 195, 1)" stroke-width="1.26" stroke-dasharray="4, 4"></path><path d="M160.33 70.47999999999999 L226.15 111.89999999999999L147.79402447755928 136.63597552244073z" stroke="#e73635" stroke-width="1" stroke-dasharray="4, 4"></path><path d="M459.85 53.91L465.97 42.66 478.29 46.16 484.41 34.91 496.72 38.41 502.84 27.16 515.16 30.66" stroke="#037b0b" stroke-width="1" stroke-dasharray="2, 2"></path><path d="M1433.19 287.93L1424.74 297.55 1413.5 291.42 1405.05 301.04 1393.8 294.91 1385.35 304.53 1374.11 298.4M1431.79 280.05L1423.34 289.67 1412.1 283.54 1403.65 293.16 1392.41 287.03 1383.96 296.65 1372.71 290.52M1430.4 272.17L1421.95 281.8 1410.71 275.66 1402.25 285.29 1391.01 279.15 1382.56 288.78 1371.32 282.64" stroke="rgba(255, 145, 195, 1)" stroke-width="2.37" stroke-dasharray="2, 2"></path><path d="M1008.73 43.04L996.58 39 997.85 26.26 985.7 22.22 986.97 9.48 974.81 5.44 976.09-7.3" stroke="#e73635" stroke-width="2.78" stroke-dasharray="3, 2"></path><rect width="228" height="228" clip-path="url(&quot;#SvgjsClipPath1234&quot;)" x="891.64" y="221.77" fill="url(#SvgjsPattern1235)" transform="rotate(259.49, 1005.64, 335.77)"></rect><rect width="288" height="288" clip-path="url(&quot;#SvgjsClipPath1236&quot;)" x="565.95" y="164.11" fill="url(#SvgjsPattern1237)" transform="rotate(333.98, 709.95, 308.11)"></rect><path d="M1149.73 267.61a5.6 5.6 0 1 0-2.51-10.91 5.6 5.6 0 1 0 2.51 10.91zM1146.15 252.02a5.6 5.6 0 1 0-2.5-10.92 5.6 5.6 0 1 0 2.5 10.92zM1142.58 236.42a5.6 5.6 0 1 0-2.5-10.92 5.6 5.6 0 1 0 2.5 10.92zM1139 220.83a5.6 5.6 0 1 0-2.5-10.92 5.6 5.6 0 1 0 2.5 10.92z" fill="#037b0b"></path><path d="M277.54 217.77 L338.61 233.09000000000003L279.35156115168377 254.15343884831626z" fill="#037b0b"></path><path d="M897.5699999999999 607.8399999999999 L865.3599999999999 521.23L830.1956208026585 615.8043791973414z" fill="#e73635"></path><rect width="188.48" height="188.48" clip-path="url(&quot;#SvgjsClipPath1238&quot;)" x="544.47" y="419.64" fill="url(#SvgjsPattern1239)" transform="rotate(0.35, 638.71, 513.88)"></rect><circle r="46.666666666666664" cx="56.43" cy="246.14" fill="#e73635"></circle></g><defs><mask id="SvgjsMask1233"><rect width="1440" height="560" fill="#ffffff"></rect></mask><pattern x="0" y="0" width="228" height="6" patternUnits="userSpaceOnUse" id="SvgjsPattern1235"><rect width="228" height="3" x="0" y="0" fill="#e73635"></rect><rect width="228" height="3" x="0" y="3" fill="rgba(0, 0, 0, 0)"></rect></pattern><clipPath id="SvgjsClipPath1234"><circle r="57" cx="1005.64" cy="335.77"></circle></clipPath><pattern x="0" y="0" width="6" height="6" patternUnits="userSpaceOnUse" id="SvgjsPattern1237"><path d="M0 6L3 0L6 6" stroke="#e73635" fill="none"></path></pattern><clipPath id="SvgjsClipPath1236"><circle r="72" cx="709.95" cy="308.11"></circle></clipPath><pattern x="0" y="0" width="11.78" height="11.78" patternUnits="userSpaceOnUse" id="SvgjsPattern1239"><path d="M5.89 1L5.89 10.78M1 5.89L10.78 5.89" stroke="#037b0b" fill="none" stroke-width="3.07"></path></pattern><clipPath id="SvgjsClipPath1238"><circle r="47.12" cx="638.71" cy="513.88"></circle></clipPath></defs></svg>