<svg xmlns="http://www.w3.org/2000/svg" version="1.1" xmlns:xlink="http://www.w3.org/1999/xlink" xmlns:svgjs="http://svgjs.com/svgjs" width="1440" height="560" preserveAspectRatio="none" viewBox="0 0 1440 560"><g mask="url(&quot;#SvgjsMask1038&quot;)" fill="none"><path d="M1243.18 456.29a49.65 49.65 0 1 0-30.89 94.37z" stroke="rgba(255, 145, 195, 1)"></path><path d="M41.57 461.71L45.35 461.71L45.35 513.06L41.57 513.06z" fill="rgba(152, 33, 31, 1)"></path><path d="M1194.36 382.07L1223.25 382.07L1223.25 410.96L1194.36 410.96z" stroke="rgba(55, 8, 9, 1)"></path><path d="M172.86 114.38L220.27 114.38L220.27 161.79L172.86 161.79z" stroke="rgba(55, 8, 9, 1)"></path><path d="M530.06 243.39 a47.31 47.31 0 1 0 94.62 0 a47.31 47.31 0 1 0 -94.62 0z" stroke="rgba(255, 145, 195, 1)"></path><path d="M454.78 478.21L496.34 478.21L496.34 519.77L454.78 519.77z" fill="rgba(55, 8, 9, 1)"></path><path d="M141.08 482.23a40.85 40.85 0 1 0 72.62-37.44z" fill="rgba(55, 8, 9, 1)"></path><path d="M1151.62 418.6L1181.18 418.6L1181.18 448.16L1151.62 448.16z" stroke="rgba(152, 33, 31, 1)"></path><path d="M1113.32 182.53 a25.06 25.06 0 1 0 50.12 0 a25.06 25.06 0 1 0 -50.12 0z" stroke="rgba(55, 8, 9, 1)"></path><path d="M328.5 300.65L359.2 300.65L359.2 340.24L328.5 340.24z" fill="rgba(152, 33, 31, 1)"></path><path d="M1103.16 250.39a55.1 55.1 0 1 0-31.68 105.56z" fill="rgba(55, 8, 9, 1)"></path><path d="M800.46 36.99L805.05 36.99L805.05 53.9L800.46 53.9z" stroke="rgba(152, 33, 31, 1)"></path><path d="M20.12 118.67L27.85 118.67L27.85 126.4L20.12 126.4z" stroke="rgba(152, 33, 31, 1)"></path><path d="M1245.08 527.27L1289.01 527.27L1289.01 571.2L1245.08 571.2z" stroke="rgba(55, 8, 9, 1)"></path><path d="M1010.82 528.42a12.98 12.98 0 1 0 19 17.7z" stroke="rgba(255, 145, 195, 1)"></path><path d="M585.12 354.53a9.86 9.86 0 1 0 13.28-14.57z" stroke="rgba(152, 33, 31, 1)"></path><path d="M69.18 305.63a51.6 51.6 0 1 0 18.16 101.59z" stroke="rgba(152, 33, 31, 1)"></path><path d="M1234.6 542.8 a22.82 22.82 0 1 0 45.64 0 a22.82 22.82 0 1 0 -45.64 0z" fill="rgba(152, 33, 31, 1)"></path><path d="M333.18 181.36L345.73 181.36L345.73 184.64L333.18 184.64z" stroke="rgba(55, 8, 9, 1)"></path><path d="M649.91 530.43L679.64 530.43L679.64 560.16L649.91 560.16z" fill="rgba(255, 145, 195, 1)"></path><path d="M1288.72 357.53L1310.23 357.53L1310.23 384.29L1288.72 384.29z" stroke="rgba(55, 8, 9, 1)"></path><path d="M1178.26 489.48a35.55 35.55 0 1 0-53.76 46.53z" stroke="rgba(152, 33, 31, 1)"></path><path d="M460.54 317.45 a37.37 37.37 0 1 0 74.74 0 a37.37 37.37 0 1 0 -74.74 0z" stroke="rgba(55, 8, 9, 1)"></path><path d="M1305.4 114.42L1325.06 114.42L1325.06 134.08L1305.4 134.08z" stroke="rgba(55, 8, 9, 1)"></path><path d="M348 136.69L360.96 136.69L360.96 174.07L348 174.07z" fill="rgba(152, 33, 31, 1)"></path><path d="M1053.68 439.69a33.97 33.97 0 1 0 67.88-2.96z" stroke="rgba(152, 33, 31, 1)"></path><path d="M1393.45 486.97a24.49 24.49 0 1 0 9.6 48.03z" fill="rgba(152, 33, 31, 1)"></path><path d="M188.78 336.36L241.7 336.36L241.7 389.28L188.78 389.28z" stroke="rgba(152, 33, 31, 1)"></path><path d="M234.34 439.37L253.5 439.37L253.5 458.53L234.34 458.53z" fill="rgba(55, 8, 9, 1)"></path><path d="M189.77 456.72L227.22 456.72L227.22 494.17L189.77 494.17z" fill="rgba(152, 33, 31, 1)"></path><path d="M783.74 240.04 a18.62 18.62 0 1 0 37.24 0 a18.62 18.62 0 1 0 -37.24 0z" fill="rgba(255, 145, 195, 1)"></path><path d="M1233.94 451.03L1281.35 451.03L1281.35 468.8L1233.94 468.8z" fill="rgba(55, 8, 9, 1)"></path><path d="M1148.46 18.09L1157.22 18.09L1157.22 46.52L1148.46 46.52z" fill="rgba(255, 145, 195, 1)"></path></g><defs><mask id="SvgjsMask1038"><rect width="1440" height="560" fill="#ffffff"></rect></mask></defs></svg>