<svg xmlns="http://www.w3.org/2000/svg" version="1.1" xmlns:xlink="http://www.w3.org/1999/xlink" xmlns:svgjs="http://svgjs.com/svgjs" width="1440" height="560" preserveAspectRatio="none" viewBox="0 0 1440 560"><g mask="url(&quot;#SvgjsMask1001&quot;)" fill="none"><path d="M793.1 332.22L843.36 332.22L843.36 382.48L793.1 382.48z" fill="#e73635"></path><path d="M1318.75 231.89a48.53 48.53 0 1 0 65.8-71.35z" fill="#e73635"></path><path d="M925.14 326.5L967.85 326.5L967.85 355.47L925.14 355.47z" fill="#037b0b"></path><path d="M561.34 399.17 a48.21 48.21 0 1 0 96.42 0 a48.21 48.21 0 1 0 -96.42 0z" stroke="#037b0b"></path><path d="M434.24 512.5a22.25 22.25 0 1 0 12.58 42.69z" fill="#e73635"></path><path d="M1168.86 0.25 a15.88 15.88 0 1 0 31.76 0 a15.88 15.88 0 1 0 -31.76 0z" fill="#037b0b"></path><path d="M347.27 81.81L357.09 81.81L357.09 135.15L347.27 135.15z" stroke="#037b0b"></path><path d="M1400.21 420.2L1438.62 420.2L1438.62 458.61L1400.21 458.61z" stroke="#d3b714"></path><path d="M1432.19 136.43a29.61 29.61 0 1 0-41.2 42.54z" fill="#037b0b"></path><path d="M894.61 332.17L941.97 332.17L941.97 379.53L894.61 379.53z" fill="#d3b714"></path><path d="M41.24 68.05L79.48 68.05L79.48 73.88L41.24 73.88z" fill="#e73635"></path><path d="M696.44 170.26a36.98 36.98 0 1 0 62.26 39.92z" fill="#e73635"></path><path d="M820.49 113.91 a27.9 27.9 0 1 0 55.8 0 a27.9 27.9 0 1 0 -55.8 0z" fill="#037b0b"></path><path d="M185.85 490.16L221.97 490.16L221.97 526.28L185.85 526.28z" fill="#d3b714"></path><path d="M1141.34 408.7L1186 408.7L1186 415.2L1141.34 415.2z" fill="#d3b714"></path><path d="M482.26 286.91L522.9 286.91L522.9 327.55L482.26 327.55z" fill="#e73635"></path><path d="M1149.66 305.13L1200.58 305.13L1200.58 343.41L1149.66 343.41z" fill="#e73635"></path><path d="M795.34 208.97a32.43 32.43 0 1 0-20.35-61.59z" stroke="#037b0b"></path><path d="M352.45 373.29L374.13 373.29L374.13 385.68L352.45 385.68z" fill="#037b0b"></path><path d="M0.9 176.07L25.96 176.07L25.96 196.12L0.9 196.12z" fill="#d3b714"></path><path d="M308.83 315.91 a29.1 29.1 0 1 0 58.2 0 a29.1 29.1 0 1 0 -58.2 0z" fill="#037b0b"></path><path d="M592.37 174.92 a41.8 41.8 0 1 0 83.6 0 a41.8 41.8 0 1 0 -83.6 0z" stroke="#d3b714"></path><path d="M956.65 379.69L985.25 379.69L985.25 385.23L956.65 385.23z" stroke="#e73635"></path><path d="M886.15 446.05L913.58 446.05L913.58 473.48L886.15 473.48z" fill="#037b0b"></path><path d="M176.6 230.81a1.24 1.24 0 1 0 0.9 2.31z" fill="#e73635"></path><path d="M1183.81 461.66a45.56 45.56 0 1 0 56.66 71.36z" fill="#037b0b"></path><path d="M1156.25 358.55L1202.69 358.55L1202.69 369.78L1156.25 369.78z" fill="#e73635"></path><path d="M147.69 218.31L176.88 218.31L176.88 247.5L147.69 247.5z" fill="#d3b714"></path><path d="M542.58 347.81 a17.34 17.34 0 1 0 34.68 0 a17.34 17.34 0 1 0 -34.68 0z" stroke="#037b0b"></path><path d="M383.29 21.86 a3.67 3.67 0 1 0 7.34 0 a3.67 3.67 0 1 0 -7.34 0z" stroke="#d3b714"></path><path d="M231.16 504.89a41.55 41.55 0 1 0-81.51-16.14z" stroke="#037b0b"></path><path d="M476.74 276.43L520.2 276.43L520.2 319.89L476.74 319.89z" fill="#037b0b"></path><path d="M922.81 94.97 a0.75 0.75 0 1 0 1.5 0 a0.75 0.75 0 1 0 -1.5 0z" stroke="#037b0b"></path></g><defs><mask id="SvgjsMask1001"><rect width="1440" height="560" fill="#ffffff"></rect></mask></defs></svg>