<svg xmlns="http://www.w3.org/2000/svg" version="1.1" xmlns:xlink="http://www.w3.org/1999/xlink" xmlns:svgjs="http://svgjs.com/svgjs" width="1440" height="560" preserveAspectRatio="none" viewBox="0 0 1440 560"><g mask="url(&quot;#SvgjsMask1019&quot;)" fill="none"><path d="M202.3 396.62 a31.32 31.32 0 1 0 62.64 0 a31.32 31.32 0 1 0 -62.64 0z" stroke="rgba(55, 8, 9, 1)"></path><path d="M808.24 115.81L848.41 115.81L848.41 127.12L808.24 127.12z" fill="rgba(255, 145, 195, 1)"></path><path d="M1214.79 353.7L1234.34 353.7L1234.34 373.25L1214.79 373.25z" stroke="rgba(255, 145, 195, 1)"></path><path d="M1411.02 400.94L1448.16 400.94L1448.16 438.08L1411.02 438.08z" fill="rgba(152, 33, 31, 1)"></path><path d="M830.23 34.32a2.85 2.85 0 1 0 4.92 2.88z" stroke="rgba(255, 145, 195, 1)"></path><path d="M1267.27-3.17a47.32 47.32 0 1 0-87.5 36.07z" stroke="rgba(152, 33, 31, 1)"></path><path d="M227.19 123.16L237.36 123.16L237.36 133.33L227.19 133.33z" stroke="rgba(255, 145, 195, 1)"></path><path d="M1401.25 336.52 a9.54 9.54 0 1 0 19.08 0 a9.54 9.54 0 1 0 -19.08 0z" stroke="rgba(255, 145, 195, 1)"></path><path d="M594.32 61.04 a28.37 28.37 0 1 0 56.74 0 a28.37 28.37 0 1 0 -56.74 0z" fill="rgba(55, 8, 9, 1)"></path><path d="M872.87 554.16L925.56 554.16L925.56 606.85L872.87 606.85z" fill="rgba(255, 145, 195, 1)"></path><path d="M1119.86 376.23L1168.48 376.23L1168.48 431.21L1119.86 431.21z" stroke="rgba(255, 145, 195, 1)"></path><path d="M398.7 545.74 a12.4 12.4 0 1 0 24.8 0 a12.4 12.4 0 1 0 -24.8 0z" fill="rgba(255, 145, 195, 1)"></path><path d="M922.19 123.9L967.91 123.9L967.91 167.46L922.19 167.46z" fill="rgba(55, 8, 9, 1)"></path><path d="M959.72 434.25a22.74 22.74 0 1 0 7.23-44.9z" stroke="rgba(255, 145, 195, 1)"></path><path d="M576.1 520.84L579.44 520.84L579.44 524.18L576.1 524.18z" stroke="rgba(255, 145, 195, 1)"></path><path d="M854.69 489.78L876.97 489.78L876.97 503.57L854.69 503.57z" fill="rgba(55, 8, 9, 1)"></path><path d="M334.73 539.5L375.98 539.5L375.98 540.58L334.73 540.58z" fill="rgba(152, 33, 31, 1)"></path><path d="M1086.12 405.84L1116.4 405.84L1116.4 424.92L1086.12 424.92z" stroke="rgba(255, 145, 195, 1)"></path><path d="M377.36 351.14L413.85 351.14L413.85 387.63L377.36 387.63z" stroke="rgba(55, 8, 9, 1)"></path><path d="M981.85 48.3L1022.71 48.3L1022.71 99.61L981.85 99.61z" stroke="rgba(152, 33, 31, 1)"></path><path d="M745.55 25.9 a32.99 32.99 0 1 0 65.98 0 a32.99 32.99 0 1 0 -65.98 0z" fill="rgba(255, 145, 195, 1)"></path><path d="M104.46 364.19 a24.39 24.39 0 1 0 48.78 0 a24.39 24.39 0 1 0 -48.78 0z" fill="rgba(255, 145, 195, 1)"></path><path d="M755.65 504.33a22.81 22.81 0 1 0-35.99-28.05z" fill="rgba(152, 33, 31, 1)"></path><path d="M599.25 231.64a31.17 31.17 0 1 0-16-60.26z" stroke="rgba(55, 8, 9, 1)"></path><path d="M878.26 404.71L903.38 404.71L903.38 429.83L878.26 429.83z" stroke="rgba(152, 33, 31, 1)"></path><path d="M1302.01 240.46L1332.06 240.46L1332.06 257.31L1302.01 257.31z" stroke="rgba(152, 33, 31, 1)"></path><path d="M481.59 317.41L530.28 317.41L530.28 366.1L481.59 366.1z" fill="rgba(255, 145, 195, 1)"></path><path d="M500.49 349.69 a17.57 17.57 0 1 0 35.14 0 a17.57 17.57 0 1 0 -35.14 0z" stroke="rgba(55, 8, 9, 1)"></path><path d="M1293.66 65.61 a51.23 51.23 0 1 0 102.46 0 a51.23 51.23 0 1 0 -102.46 0z" fill="rgba(55, 8, 9, 1)"></path><path d="M15.67 304.04L43.6 304.04L43.6 331.97L15.67 331.97z" fill="rgba(255, 145, 195, 1)"></path><path d="M641.79 64.26 a30.43 30.43 0 1 0 60.86 0 a30.43 30.43 0 1 0 -60.86 0z" stroke="rgba(55, 8, 9, 1)"></path><path d="M1119.99 196.99L1162.6 196.99L1162.6 239.6L1119.99 239.6z" stroke="rgba(255, 145, 195, 1)"></path><path d="M932.29 240.85a16.6 16.6 0 1 0-17.68 28.1z" fill="rgba(255, 145, 195, 1)"></path></g><defs><mask id="SvgjsMask1019"><rect width="1440" height="560" fill="#ffffff"></rect></mask></defs></svg>