<svg xmlns="http://www.w3.org/2000/svg" version="1.1" xmlns:xlink="http://www.w3.org/1999/xlink" xmlns:svgjs="http://svgjs.com/svgjs" width="1440" height="560" preserveAspectRatio="none" viewBox="0 0 1440 560"><g mask="url(&quot;#SvgjsMask1053&quot;)" fill="none"><path d="M663.92 112L681.4 112L681.4 129.48L663.92 129.48z" fill="rgba(76, 34, 96, 1)"></path><path d="M64 107.97L71.07 107.97L71.07 143.59L64 143.59z" stroke="rgba(152, 33, 31, 1)"></path><path d="M512.38 117.29L541.93 117.29L541.93 146.84L512.38 146.84z" fill="rgba(152, 33, 31, 1)"></path><path d="M1020.55 183.18L1020.85 183.18L1020.85 183.48L1020.55 183.48z" stroke="rgba(152, 33, 31, 1)"></path><path d="M1073.22 392.06L1126.83 392.06L1126.83 445.67L1073.22 445.67z" fill="rgba(255, 145, 195, 1)"></path><path d="M817.45 117.23L842.35 117.23L842.35 147.66L817.45 147.66z" fill="rgba(152, 33, 31, 1)"></path><path d="M439.8 294.2 a27.7 27.7 0 1 0 55.4 0 a27.7 27.7 0 1 0 -55.4 0z" stroke="rgba(76, 34, 96, 1)"></path><path d="M477.42 486.98 a6.59 6.59 0 1 0 13.18 0 a6.59 6.59 0 1 0 -13.18 0z" stroke="rgba(255, 145, 195, 1)"></path><path d="M897.27 132.11L938.71 132.11L938.71 163.87L897.27 163.87z" fill="rgba(76, 34, 96, 1)"></path><path d="M383.18 133.75 a49.48 49.48 0 1 0 98.96 0 a49.48 49.48 0 1 0 -98.96 0z" stroke="rgba(76, 34, 96, 1)"></path><path d="M482.19 301.88L486.79 301.88L486.79 306.48L482.19 306.48z" fill="rgba(255, 145, 195, 1)"></path><path d="M1408.9 239.94L1440.74 239.94L1440.74 271.78L1408.9 271.78z" stroke="rgba(76, 34, 96, 1)"></path><path d="M720.42 57.66 a16.69 16.69 0 1 0 33.38 0 a16.69 16.69 0 1 0 -33.38 0z" stroke="rgba(152, 33, 31, 1)"></path><path d="M325.65 472.5 a35.8 35.8 0 1 0 71.6 0 a35.8 35.8 0 1 0 -71.6 0z" stroke="rgba(76, 34, 96, 1)"></path><path d="M697.12 510.31L738.56 510.31L738.56 551.75L697.12 551.75z" fill="rgba(76, 34, 96, 1)"></path><path d="M1227.71 12.42L1245.15 12.42L1245.15 15.59L1227.71 15.59z" stroke="rgba(152, 33, 31, 1)"></path><path d="M215.11 284.75L222.91 284.75L222.91 292.55L215.11 292.55z" fill="rgba(255, 145, 195, 1)"></path><path d="M686.39 460.02a50.47 50.47 0 1 0-6.79-100.71z" fill="rgba(255, 145, 195, 1)"></path><path d="M452.43 548.82L504.58 548.82L504.58 569.52L452.43 569.52z" stroke="rgba(76, 34, 96, 1)"></path><path d="M1274.88 150.47a3.11 3.11 0 1 0 6.22 0.16z" stroke="rgba(152, 33, 31, 1)"></path><path d="M860.05 411.51a47.13 47.13 0 1 0-74.38 57.9z" stroke="rgba(76, 34, 96, 1)"></path><path d="M300.16 186.29L340.76 186.29L340.76 226.89L300.16 226.89z" fill="rgba(76, 34, 96, 1)"></path><path d="M1370.38 255.58L1413.92 255.58L1413.92 283.22L1370.38 283.22z" fill="rgba(152, 33, 31, 1)"></path><path d="M569.28 203.09 a5.22 5.22 0 1 0 10.44 0 a5.22 5.22 0 1 0 -10.44 0z" stroke="rgba(76, 34, 96, 1)"></path><path d="M422.82 267.74 a24.44 24.44 0 1 0 48.88 0 a24.44 24.44 0 1 0 -48.88 0z" fill="rgba(76, 34, 96, 1)"></path><path d="M1044.17 190.7L1097.65 190.7L1097.65 244.18L1044.17 244.18z" fill="rgba(76, 34, 96, 1)"></path><path d="M300.13 535.92a43.86 43.86 0 1 0 86.4 15.12z" fill="rgba(76, 34, 96, 1)"></path><path d="M198.55 539.88L227.52 539.88L227.52 572.77L198.55 572.77z" stroke="rgba(255, 145, 195, 1)"></path><path d="M79.71 520.77L91.08 520.77L91.08 532.14L79.71 532.14z" stroke="rgba(152, 33, 31, 1)"></path><path d="M904.36 195.37a27.22 27.22 0 1 0-38.58-38.41z" fill="rgba(76, 34, 96, 1)"></path><path d="M119.63 529.01L133.29 529.01L133.29 542.67L119.63 542.67z" fill="rgba(255, 145, 195, 1)"></path><path d="M1164.43 103.37a16.09 16.09 0 1 0-10.05-30.57z" fill="rgba(152, 33, 31, 1)"></path><path d="M346.12 326.24L367.6 326.24L367.6 365.16L346.12 365.16z" stroke="rgba(255, 145, 195, 1)"></path></g><defs><mask id="SvgjsMask1053"><rect width="1440" height="560" fill="#ffffff"></rect></mask></defs></svg>