<svg xmlns="http://www.w3.org/2000/svg" version="1.1" xmlns:xlink="http://www.w3.org/1999/xlink" xmlns:svgjs="http://svgjs.com/svgjs" width="1440" height="809" preserveAspectRatio="none" viewBox="0 0 1440 809"><g mask="url(&quot;#SvgjsMask1228&quot;)" fill="none"><rect width="1440" height="809" x="0" y="0" fill="url(#SvgjsLinearGradient1229)"></rect><path d="M0 0L440.23 0L0 97.2z" fill="rgba(255, 255, 255, .1)"></path><path d="M0 97.2L440.23 0L862.8199999999999 0L0 340.33z" fill="rgba(255, 255, 255, .075)"></path><path d="M0 340.33L862.8199999999999 0L1201.5 0L0 445.90999999999997z" fill="rgba(255, 255, 255, .05)"></path><path d="M0 445.90999999999997L1201.5 0L1203.99 0L0 651.37z" fill="rgba(255, 255, 255, .025)"></path><path d="M1440 809L896.04 809L1440 636.33z" fill="rgba(0, 0, 0, .1)"></path><path d="M1440 636.33L896.04 809L550.92 809L1440 322.69000000000005z" fill="rgba(0, 0, 0, .075)"></path><path d="M1440 322.69000000000005L550.92 809L502.44999999999993 809L1440 208.30000000000007z" fill="rgba(0, 0, 0, .05)"></path><path d="M1440 208.30000000000007L502.44999999999993 809L191.83999999999992 809L1440 101.37000000000006z" fill="rgba(0, 0, 0, .025)"></path></g><defs><mask id="SvgjsMask1228"><rect width="1440" height="809" fill="#ffffff"></rect></mask><linearGradient x1="10.95%" y1="-19.5%" x2="89.05%" y2="119.5%" gradientUnits="userSpaceOnUse" id="SvgjsLinearGradient1229"><stop stop-color="rgba(233, 232, 243, 1)" offset="0.79"></stop><stop stop-color="rgba(200, 199, 213, 1)" offset="0.95"></stop><stop stop-color="rgba(233, 232, 243, 1)" offset="1"></stop></linearGradient></defs></svg>